<svg width="35" height="24" viewBox="0 0 35 24" fill="none" xmlns="http://www.w3.org/2000/svg">
<g opacity="0.98">
<path d="M3.39076 16.3333H1.31863V4.34579H11.0628V6.29805H3.39076V9.36343H10.2065V11.3157H3.39076V16.3333ZM12.1669 16.3333V4.34579H14.2391V14.3811H21.6028V16.3333H12.1669ZM21.6167 10.3396C21.6167 8.19322 22.1019 6.63484 23.0724 5.66442C24.0542 4.68259 25.6183 4.19167 27.7646 4.19167C29.5342 4.19167 30.8985 4.52275 31.8575 5.18492C32.8165 5.83567 33.4387 6.86888 33.7241 8.28455H31.5492C31.0355 6.85746 29.774 6.14392 27.7646 6.14392C26.3375 6.14392 25.2986 6.48071 24.6479 7.1543C24.0085 7.81647 23.6889 8.87822 23.6889 10.3396C23.6889 11.8123 24.0257 12.8798 24.6992 13.5419C25.3842 14.2041 26.5145 14.5352 28.09 14.5352C29.323 14.5352 30.2192 14.3468 30.7786 13.9701C31.3495 13.5933 31.6349 12.9939 31.6349 12.1719V11.6411H27.6619V9.8258H33.707V12.1719C33.707 13.6789 33.256 14.7749 32.3541 15.4599C31.4636 16.1449 30.0365 16.4874 28.0729 16.4874C25.7781 16.4874 24.1284 16.0022 23.1237 15.0318C22.1191 14.0614 21.6167 12.4973 21.6167 10.3396Z" fill="#444444"/>
<path d="M3.39076 16.3333H1.31863V4.34579H11.0628V6.29805H3.39076V9.36343H10.2065V11.3157H3.39076V16.3333Z" fill="#444444"/>
<rect width="31.9872" height="1.61961" transform="matrix(-1 -8.74228e-08 -8.74228e-08 1 33.6071 18.149)" fill="#444444"/>
</g>
</svg>
