<svg width="17" height="17" viewBox="0 0 17 17" fill="none" xmlns="http://www.w3.org/2000/svg">
<path d="M8.89414 3.44179L12.1561 6.7038V14.2476H4.05178V3.44179H8.89414ZM9.45469 2.09106H4.05178C3.30888 2.09106 2.70105 2.69889 2.70105 3.44179V14.2476C2.70105 14.9905 3.30888 15.5983 4.05178 15.5983H12.1561C12.899 15.5983 13.5069 14.9905 13.5069 14.2476V6.14325L9.45469 2.09106ZM8.10396 10.1954C8.84686 10.1954 9.45469 9.58761 9.45469 8.84471C9.45469 8.1018 8.84686 7.49398 8.10396 7.49398C7.36106 7.49398 6.75323 8.1018 6.75323 8.84471C6.75323 9.58761 7.36106 10.1954 8.10396 10.1954ZM10.8054 12.5119C10.8054 11.9649 10.4812 11.4786 9.98147 11.2625C9.40741 11.0126 8.77257 10.8708 8.10396 10.8708C7.43535 10.8708 6.80051 11.0126 6.22645 11.2625C5.72668 11.4786 5.40251 11.9649 5.40251 12.5119V12.8969H10.8054V12.5119Z" fill="#D9D9D9"/>
</svg>
