<svg width="18" height="20" viewBox="0 0 18 20" fill="none" xmlns="http://www.w3.org/2000/svg">
<path d="M14.0001 13.3334L17.3335 10L14.0001 6.66671V9.16671H9.78346C9.50013 6.58337 7.90013 4.40004 5.66679 3.29171C5.63346 1.92504 4.53346 0.833374 3.16679 0.833374C1.78346 0.833374 0.666794 1.95004 0.666794 3.33337C0.666794 4.71671 1.78346 5.83337 3.16679 5.83337C3.95846 5.83337 4.65013 5.45837 5.10846 4.88337C6.69179 5.75004 7.83346 7.30837 8.10013 9.16671H5.51679C5.16679 8.20004 4.25013 7.50004 3.16679 7.50004C1.78346 7.50004 0.666794 8.61671 0.666794 10C0.666794 11.3834 1.78346 12.5 3.16679 12.5C4.25013 12.5 5.16679 11.8 5.51679 10.8334H8.10013C7.83346 12.6917 6.69179 14.25 5.11679 15.1167C4.65013 14.5417 3.95846 14.1667 3.16679 14.1667C1.78346 14.1667 0.666794 15.2834 0.666794 16.6667C0.666794 18.05 1.78346 19.1667 3.16679 19.1667C4.53346 19.1667 5.63346 18.075 5.65846 16.7084C7.89179 15.6 9.49179 13.4167 9.77513 10.8334H14.0001V13.3334Z" fill="black"/>
</svg>
