<svg width="14" height="14" viewBox="0 0 14 14" fill="none" xmlns="http://www.w3.org/2000/svg">
<path d="M10.0686 7.83168C10.5411 7.83168 10.957 7.57333 11.1712 7.18267L13.427 3.09328C13.6602 2.67741 13.3577 2.16072 12.8788 2.16072H3.55326L2.96096 0.900513H0.900513V2.16072H2.16072L4.42911 6.94323L3.57846 8.48069C3.11849 9.32503 3.72339 10.3521 4.68115 10.3521H12.2424V9.09189H4.68115L5.37426 7.83168H10.0686ZM4.15186 3.42094H11.8076L10.0686 6.57147H5.64521L4.15186 3.42094ZM4.68115 10.9822C3.98803 10.9822 3.42724 11.5493 3.42724 12.2424C3.42724 12.9355 3.98803 13.5026 4.68115 13.5026C5.37426 13.5026 5.94136 12.9355 5.94136 12.2424C5.94136 11.5493 5.37426 10.9822 4.68115 10.9822ZM10.9822 10.9822C10.2891 10.9822 9.7283 11.5493 9.7283 12.2424C9.7283 12.9355 10.2891 13.5026 10.9822 13.5026C11.6753 13.5026 12.2424 12.9355 12.2424 12.2424C12.2424 11.5493 11.6753 10.9822 10.9822 10.9822Z" fill="#D9D9D9"/>
</svg>
