<svg width="15" height="15" viewBox="0 0 15 15" fill="none" xmlns="http://www.w3.org/2000/svg">
<g clip-path="url(#clip0_45_1043)">
<path d="M10.625 4.53125C10.3661 4.53125 10.1562 4.74112 10.1562 5V10C10.1562 10.2589 10.3661 10.4688 10.625 10.4688C10.8839 10.4688 11.0938 10.2589 11.0938 10V5C11.0938 4.74112 10.8839 4.53125 10.625 4.53125Z" fill="#1C274C"/>
<path d="M3.90625 7.5C3.90625 7.75887 4.11612 7.96875 4.375 7.96875H7.61831L6.54356 9.04356C6.3605 9.22662 6.3605 9.52337 6.54356 9.70644C6.72662 9.8895 7.02337 9.8895 7.20644 9.70644L9.08144 7.83144C9.16937 7.74356 9.21875 7.62431 9.21875 7.5C9.21875 7.37569 9.16937 7.25644 9.08144 7.16856L7.20644 5.29354C7.02337 5.11049 6.72662 5.11049 6.54356 5.29354C6.3605 5.4766 6.3605 5.7734 6.54356 5.95645L7.61831 7.03125H4.375C4.11612 7.03125 3.90625 7.24112 3.90625 7.5Z" fill="#1C274C"/>
<path fill-rule="evenodd" clip-rule="evenodd" d="M7.46412 0.78125C6.02139 0.781244 4.89074 0.781238 4.00856 0.899844C3.10561 1.02124 2.39309 1.27458 1.83384 1.83384C1.27458 2.39309 1.02124 3.10561 0.899844 4.00857C0.781238 4.89074 0.781244 6.02139 0.78125 7.46412V7.53587C0.781244 8.97862 0.781238 10.1092 0.899844 10.9914C1.02124 11.8944 1.27458 12.6069 1.83384 13.1662C2.39309 13.7254 3.10561 13.9787 4.00856 14.1002C4.89074 14.2187 6.02139 14.2187 7.46412 14.2187H7.53587C8.97862 14.2187 10.1092 14.2187 10.9914 14.1002C11.8944 13.9787 12.6069 13.7254 13.1662 13.1662C13.7254 12.6069 13.9787 11.8944 14.1002 10.9914C14.2187 10.1092 14.2187 8.97862 14.2187 7.53587V7.46412C14.2187 6.02139 14.2187 4.89074 14.1002 4.00857C13.9787 3.10561 13.7254 2.39309 13.1662 1.83384C12.6069 1.27458 11.8944 1.02124 10.9914 0.899844C10.1092 0.781238 8.97862 0.781244 7.53587 0.78125H7.46412ZM2.49675 2.49675C2.85278 2.14071 3.33448 1.93641 4.13349 1.82898C4.94597 1.71974 6.01361 1.71875 7.5 1.71875C8.98637 1.71875 10.054 1.71974 10.8665 1.82898C11.6655 1.93641 12.1472 2.14071 12.5032 2.49675C12.8593 2.85278 13.0636 3.33448 13.171 4.13349C13.2802 4.94597 13.2812 6.01361 13.2812 7.5C13.2812 8.98637 13.2802 10.054 13.171 10.8665C13.0636 11.6655 12.8593 12.1472 12.5032 12.5032C12.1472 12.8593 11.6655 13.0636 10.8665 13.171C10.054 13.2802 8.98637 13.2812 7.5 13.2812C6.01361 13.2812 4.94597 13.2802 4.13349 13.171C3.33448 13.0636 2.85278 12.8593 2.49675 12.5032C2.14071 12.1472 1.93641 11.6655 1.82898 10.8665C1.71974 10.054 1.71875 8.98637 1.71875 7.5C1.71875 6.01361 1.71974 4.94597 1.82898 4.13349C1.93641 3.33448 2.14071 2.85278 2.49675 2.49675Z" fill="#1C274C"/>
</g>
<defs>
<clipPath id="clip0_45_1043">
<rect width="15" height="15" fill="white"/>
</clipPath>
</defs>
</svg>
