<svg width="21" height="21" viewBox="0 0 21 21" fill="none" xmlns="http://www.w3.org/2000/svg">
<path d="M20.25 12.6562V18.5625C20.25 19.0101 20.0722 19.4393 19.7557 19.7557C19.4393 20.0722 19.0101 20.25 18.5625 20.25H1.6875C1.23995 20.25 0.810725 20.0722 0.494257 19.7557C0.17779 19.4393 0 19.0101 0 18.5625V12.6562C0 12.4325 0.088895 12.2179 0.247129 12.0596C0.405363 11.9014 0.619974 11.8125 0.84375 11.8125C1.06753 11.8125 1.28214 11.9014 1.44037 12.0596C1.59861 12.2179 1.6875 12.4325 1.6875 12.6562V18.5625H18.5625V12.6562C18.5625 12.4325 18.6514 12.2179 18.8096 12.0596C18.9679 11.9014 19.1825 11.8125 19.4062 11.8125C19.63 11.8125 19.8446 11.9014 20.0029 12.0596C20.1611 12.2179 20.25 12.4325 20.25 12.6562ZM9.52805 13.2532C9.60641 13.3317 9.69946 13.3939 9.80189 13.4363C9.90432 13.4788 10.0141 13.5007 10.125 13.5007C10.2359 13.5007 10.3457 13.4788 10.4481 13.4363C10.5505 13.3939 10.6436 13.3317 10.722 13.2532L14.9407 9.03445C15.0191 8.95606 15.0813 8.86299 15.1237 8.76057C15.1661 8.65814 15.188 8.54836 15.188 8.4375C15.188 8.32664 15.1661 8.21686 15.1237 8.11443C15.0813 8.01201 15.0191 7.91894 14.9407 7.84055C14.8623 7.76215 14.7692 7.69997 14.6668 7.65754C14.5644 7.61512 14.4546 7.59328 14.3438 7.59328C14.2329 7.59328 14.1231 7.61512 14.0207 7.65754C13.9183 7.69997 13.8252 7.76215 13.7468 7.84055L10.9688 10.6196V0.84375C10.9688 0.619974 10.8799 0.405363 10.7216 0.247129C10.5634 0.088895 10.3488 0 10.125 0C9.90122 0 9.68661 0.088895 9.52838 0.247129C9.37014 0.405363 9.28125 0.619974 9.28125 0.84375V10.6196L6.5032 7.84055C6.34488 7.68222 6.13015 7.59328 5.90625 7.59328C5.68235 7.59328 5.46762 7.68222 5.3093 7.84055C5.15097 7.99887 5.06203 8.2136 5.06203 8.4375C5.06203 8.6614 5.15097 8.87613 5.3093 9.03445L9.52805 13.2532Z" fill="black"/>
</svg>
