<svg width="15" height="16" viewBox="0 0 15 16" fill="none" xmlns="http://www.w3.org/2000/svg">
<g clip-path="url(#clip0_1557_936)">
<path d="M11.4061 3.82199V12.2265H3.00155V3.82199H11.4061ZM11.4061 2.62134H3.00155C2.34119 2.62134 1.8009 3.16163 1.8009 3.82199V12.2265C1.8009 12.8869 2.34119 13.4272 3.00155 13.4272H11.4061C12.0664 13.4272 12.6067 12.8869 12.6067 12.2265V3.82199C12.6067 3.16163 12.0664 2.62134 11.4061 2.62134Z" fill="#D9D9D9"/>
<path d="M8.40441 11.0258H4.20215V9.82517H8.40441V11.0258ZM10.2054 8.62452H4.20215V7.42388H10.2054V8.62452ZM10.2054 6.22323H4.20215V5.02258H10.2054V6.22323Z" fill="#D9D9D9"/>
</g>
<defs>
<clipPath id="clip0_1557_936">
<rect width="14.4078" height="14.4078" fill="white" transform="translate(0 0.820312)"/>
</clipPath>
</defs>
</svg>
