<svg width="19" height="15" viewBox="0 0 19 15" fill="none" xmlns="http://www.w3.org/2000/svg">
<path fill-rule="evenodd" clip-rule="evenodd" d="M9.5 1C5.27169 1 2.39603 3.42269 0.877906 5.1598C-0.292636 6.49919 -0.292635 8.50081 0.877906 9.84019C2.39603 11.5774 5.27169 14 9.5 14C13.7283 14 16.604 11.5774 18.1221 9.84019C19.2926 8.50081 19.2926 6.49919 18.1221 5.1598C16.604 3.42269 13.7283 1 9.5 1ZM2.16927 6.4197C3.51358 4.88145 5.95553 2.85714 9.5 2.85714C13.0445 2.85714 15.4864 4.88145 16.8307 6.4197C17.3795 7.0476 17.3795 7.9524 16.8307 8.5803C15.4864 10.1186 13.0445 12.1429 9.5 12.1429C5.95553 12.1429 3.51358 10.1186 2.16927 8.5803C1.6205 7.9524 1.6205 7.0476 2.16927 6.4197Z" fill="#B2B2B2"/>
<path fill-rule="evenodd" clip-rule="evenodd" d="M9.43313 10.9027C11.0992 10.9027 12.4497 9.40994 12.4497 7.56853C12.4497 5.72712 11.0992 4.23438 9.43313 4.23438C7.7671 4.23438 6.4165 5.72712 6.4165 7.56853C6.4165 9.40994 7.7671 10.9027 9.43313 10.9027ZM9.43313 8.99212C8.72181 8.99212 8.14512 8.35473 8.14512 7.56853C8.14512 6.78234 8.72181 6.14494 9.43313 6.14494C10.1444 6.14494 10.7211 6.78234 10.7211 7.56853C10.7211 8.35473 10.1444 8.99212 9.43313 8.99212Z" fill="#B2B2B2"/>
</svg>
