<svg width="11" height="11" viewBox="0 0 11 11" fill="none" xmlns="http://www.w3.org/2000/svg">
<path d="M4.95834 8.75H6.04168V7.66666H4.95834V8.75ZM5.50001 0.0833321C2.51001 0.0833321 0.0833435 2.51 0.0833435 5.5C0.0833435 8.49 2.51001 10.9167 5.50001 10.9167C8.49001 10.9167 10.9167 8.49 10.9167 5.5C10.9167 2.51 8.49001 0.0833321 5.50001 0.0833321ZM5.50001 9.83333C3.11126 9.83333 1.16668 7.88875 1.16668 5.5C1.16668 3.11125 3.11126 1.16667 5.50001 1.16667C7.88876 1.16667 9.83334 3.11125 9.83334 5.5C9.83334 7.88875 7.88876 9.83333 5.50001 9.83333ZM5.50001 2.25C4.30293 2.25 3.33334 3.21958 3.33334 4.41667H4.41668C4.41668 3.82083 4.90418 3.33333 5.50001 3.33333C6.09584 3.33333 6.58334 3.82083 6.58334 4.41667C6.58334 5.5 4.95834 5.36458 4.95834 7.125H6.04168C6.04168 5.90625 7.66668 5.77083 7.66668 4.41667C7.66668 3.21958 6.69709 2.25 5.50001 2.25Z" fill="#3E3E3A"/>
</svg>
