<svg width="63" height="24" viewBox="0 0 63 24" fill="none" xmlns="http://www.w3.org/2000/svg">
<path d="M4.133 16.4946H2.10903V4.78568H11.6267V6.69257H4.133V9.68671H10.7904V11.5936H4.133V16.4946ZM13.6252 16.4946V4.78568H15.6492V14.5877H22.8418V16.4946H13.6252ZM23.7754 10.6402C23.7754 8.5437 24.2493 7.02153 25.1972 6.07367C26.1562 5.11465 27.684 4.63514 29.7804 4.63514C31.5089 4.63514 32.8415 4.95853 33.7782 5.60531C34.7149 6.24094 35.3227 7.25014 35.6015 8.63291H33.4771C32.9753 7.23899 31.7431 6.54202 29.7804 6.54202C28.3865 6.54202 27.3717 6.87099 26.7361 7.52892C26.1116 8.1757 25.7994 9.21278 25.7994 10.6402C25.7994 12.0787 26.1284 13.1213 26.7863 13.7681C27.4554 14.4149 28.5594 14.7383 30.0982 14.7383C31.3026 14.7383 32.178 14.5543 32.7244 14.1863C33.282 13.8183 33.5607 13.2329 33.5607 12.43V11.9114H29.6801V10.1383H35.5847V12.43C35.5847 13.9019 35.1442 14.9725 34.2633 15.6415C33.3935 16.3106 31.9996 16.6452 30.0815 16.6452C27.8401 16.6452 26.2287 16.1712 25.2474 15.2234C24.2661 14.2755 23.7754 12.7478 23.7754 10.6402Z" fill="#444444"/>
<path d="M46.0665 16.4946V4.78568H48.0905V16.4946H46.0665ZM50.6567 16.4946V4.78568H55.5912C57.6876 4.78568 59.2098 5.24846 60.1577 6.17403C61.1055 7.09959 61.5795 8.5883 61.5795 10.6402C61.5795 12.692 61.1055 14.1807 60.1577 15.1063C59.2098 16.0318 57.6876 16.4946 55.5912 16.4946H50.6567ZM52.6807 14.5877H55.5243C56.9405 14.5877 57.9664 14.2755 58.602 13.651C59.2377 13.0266 59.5555 12.0229 59.5555 10.6402C59.5555 9.25738 59.2377 8.25376 58.602 7.62928C57.9664 7.00481 56.9405 6.69257 55.5243 6.69257H52.6807V14.5877Z" fill="#444444"/>
</svg>
