<svg width="31" height="31" viewBox="0 0 31 31" fill="none" xmlns="http://www.w3.org/2000/svg">
<path d="M11.1984 13.0551C11.2236 11.863 11.6399 10.9075 12.4471 10.1885C13.2544 9.46324 14.3708 9.10059 15.7961 9.10059C17.1395 9.10059 18.2243 9.44116 19.0505 10.1223C19.8767 10.7972 20.2899 11.677 20.2899 12.7618C20.2899 13.4619 20.1227 14.0736 19.7885 14.5971C19.4542 15.1143 18.9465 15.5715 18.2653 15.9689C17.6346 16.3347 17.2089 16.6626 16.9882 16.9528C16.7674 17.2429 16.657 17.6213 16.657 18.088V18.5894H14.15L14.1311 18.0407C14.068 17.3091 14.1689 16.7068 14.4338 16.2338C14.705 15.7607 15.1718 15.3287 15.834 14.9377C16.4458 14.5719 16.862 14.2439 17.0828 13.9538C17.3098 13.6637 17.4233 13.2947 17.4233 12.8469C17.4233 12.3928 17.2562 12.0207 16.9219 11.7306C16.594 11.4405 16.1619 11.2954 15.6259 11.2954C15.0835 11.2954 14.6451 11.4562 14.3109 11.7779C13.9766 12.0932 13.7937 12.519 13.7621 13.0551H11.1984ZM16.5341 22.6858C16.2313 22.9696 15.8655 23.1115 15.4366 23.1115C15.0078 23.1115 14.642 22.9696 14.3392 22.6858C14.0428 22.3957 13.8946 22.0425 13.8946 21.6262C13.8946 21.21 14.0428 20.8599 14.3392 20.5761C14.642 20.286 15.0078 20.1409 15.4366 20.1409C15.8655 20.1409 16.2313 20.286 16.5341 20.5761C16.8368 20.8599 16.9882 21.21 16.9882 21.6262C16.9882 22.0425 16.8368 22.3957 16.5341 22.6858Z" fill="#D9D9D9"/>
<rect x="1" y="1" width="29" height="29" rx="14.5" stroke="#D9DCE2" stroke-width="2"/>
</svg>
