<svg width="16" height="13" viewBox="0 0 16 13" fill="none" xmlns="http://www.w3.org/2000/svg">
<path fill-rule="evenodd" clip-rule="evenodd" d="M6.62906 3.02104e-07H9.37094C10.5961 -1.30312e-05 11.5665 -1.96596e-05 12.326 0.102094C13.1076 0.207174 13.7403 0.428587 14.2392 0.927494C14.7381 1.42641 14.9595 2.05904 15.0646 2.84065C15.1667 3.60013 15.1667 4.57055 15.1667 5.79573V5.83333C15.1667 6.10947 14.9428 6.33333 14.6667 6.33333C14.3905 6.33333 14.1667 6.10947 14.1667 5.83333C14.1667 4.56212 14.1656 3.65901 14.0735 2.9739C13.9833 2.30317 13.8142 1.91674 13.5321 1.6346C13.2499 1.35246 12.8635 1.18335 12.1928 1.09317C11.5077 1.00106 10.6045 1 9.33333 1H6.66667C5.39546 1 4.49234 1.00106 3.80724 1.09317C3.13651 1.18335 2.75008 1.35246 2.46794 1.6346C2.1858 1.91674 2.01668 2.30317 1.92651 2.9739C1.8344 3.65901 1.83334 4.56212 1.83334 5.83333V7.16667C1.83334 8.43787 1.8344 9.341 1.92651 10.0261C2.01668 10.6968 2.1858 11.0833 2.46794 11.3654C2.75008 11.6475 3.13651 11.8167 3.80724 11.9068C4.49234 11.9989 5.39546 12 6.66667 12H7.33334C7.60947 12 7.83334 12.2239 7.83334 12.5C7.83334 12.7761 7.60947 13 7.33334 13H6.62906C5.40389 13 4.43346 13 3.67399 12.8979C2.89238 12.7928 2.25974 12.5714 1.76083 12.0725C1.26192 11.5736 1.04051 10.9409 0.935429 10.1593C0.833316 9.39987 0.833323 8.42947 0.833336 7.20427V5.79573C0.833323 4.57055 0.833316 3.60013 0.935429 2.84065C1.04051 2.05904 1.26192 1.42641 1.76083 0.927494C2.25974 0.428587 2.89238 0.207174 3.67399 0.102094C4.43346 -1.96596e-05 5.40388 -1.30312e-05 6.62906 3.02104e-07ZM4.5 3.5C4.5 3.22386 4.72386 3 5 3H7C7.27614 3 7.5 3.22386 7.5 3.5C7.5 3.77614 7.27614 4 7 4H6.20711L8.0202 5.81313C8.21547 6.0084 8.21547 6.32493 8.0202 6.5202C7.82494 6.71547 7.5084 6.71547 7.31314 6.5202L5.5 4.70711V5.5C5.5 5.77613 5.27614 6 5 6C4.72386 6 4.5 5.77613 4.5 5.5V3.5ZM11.2987 6.66667H12.0347C12.6337 6.66667 13.1331 6.6666 13.5297 6.71993C13.9482 6.7762 14.3261 6.9 14.6297 7.20367C14.9333 7.50727 15.0571 7.88513 15.1134 8.30367C15.1667 8.7002 15.1667 9.19967 15.1667 9.79867V9.868C15.1667 10.467 15.1667 10.9665 15.1134 11.363C15.0571 11.7815 14.9333 12.1594 14.6297 12.463C14.3261 12.7667 13.9482 12.8905 13.5297 12.9467C13.1331 13.0001 12.6337 13 12.0347 13H11.2987C10.6997 13 10.2002 13.0001 9.80367 12.9467C9.38513 12.8905 9.00727 12.7667 8.70367 12.463C8.4 12.1594 8.2762 11.7815 8.21994 11.363C8.1666 10.9665 8.16667 10.467 8.16667 9.868V9.79867C8.16667 9.19967 8.1666 8.7002 8.21994 8.30367C8.2762 7.88513 8.4 7.50727 8.70367 7.20367C9.00727 6.9 9.38513 6.7762 9.80367 6.71993C10.2002 6.6666 10.6997 6.66667 11.2987 6.66667ZM9.93694 7.711C9.62927 7.7524 9.4976 7.82387 9.41074 7.91073C9.32387 7.9976 9.2524 8.12927 9.211 8.43693C9.16774 8.75893 9.16667 9.19067 9.16667 9.83333C9.16667 10.476 9.16774 10.9077 9.211 11.2297C9.2524 11.5374 9.32387 11.6691 9.41074 11.7559C9.4976 11.8428 9.62927 11.9143 9.93694 11.9557C10.2589 11.9989 10.6907 12 11.3333 12H12C12.6427 12 13.0744 11.9989 13.3964 11.9557C13.7041 11.9143 13.8357 11.8428 13.9226 11.7559C14.0095 11.6691 14.0809 11.5374 14.1223 11.2297C14.1656 10.9077 14.1667 10.476 14.1667 9.83333C14.1667 9.19067 14.1656 8.75893 14.1223 8.43693C14.0809 8.12927 14.0095 7.9976 13.9226 7.91073C13.8357 7.82387 13.7041 7.7524 13.3964 7.711C13.0744 7.66773 12.6427 7.66667 12 7.66667H11.3333C10.6907 7.66667 10.2589 7.66773 9.93694 7.711Z" fill="#1C274C"/>
</svg>
