<svg width="15" height="15" viewBox="0 0 15 15" fill="none" xmlns="http://www.w3.org/2000/svg">
<g clip-path="url(#clip0_51_4733)">
<path d="M13.75 6.56238V7.49988C13.75 10.4461 13.75 11.9193 12.8347 12.8346C11.9194 13.7499 10.4462 13.7499 7.5 13.7499C4.55372 13.7499 3.08058 13.7499 2.16529 12.8346C1.25 11.9193 1.25 10.4461 1.25 7.49988C1.25 4.5536 1.25 3.08046 2.16529 2.16517C3.08058 1.24988 4.55372 1.24988 7.5 1.24988H8.4375" stroke="#1C274C" stroke-width="0.9375" stroke-linecap="round"/>
<path d="M10.4075 2.15929L10.8131 1.75378C11.4849 1.08191 12.5743 1.08191 13.2461 1.75378C13.9179 2.42565 13.9179 3.51497 13.2461 4.18684L12.8406 4.59235M10.4075 2.15929C10.4075 2.15929 10.4582 3.021 11.2186 3.78133C11.9789 4.54166 12.8406 4.59235 12.8406 4.59235M10.4075 2.15929L6.6795 5.88734C6.427 6.13984 6.30075 6.26607 6.19214 6.40532C6.06406 6.5695 5.95425 6.74719 5.86465 6.93519C5.7887 7.09457 5.73223 7.26394 5.61931 7.60275L5.25776 8.68738M12.8406 4.59235L9.11256 8.32038C8.86006 8.57288 8.73381 8.69913 8.59456 8.80775C8.43038 8.93582 8.25269 9.04563 8.06469 9.13525C7.90531 9.21119 7.73594 9.26763 7.39713 9.38057L6.3125 9.74213M5.25776 8.68738L5.02382 9.38919C4.96825 9.55594 5.01164 9.73969 5.1359 9.864C5.26016 9.98825 5.44397 10.0316 5.61068 9.97607L6.3125 9.74213M5.25776 8.68738L6.3125 9.74213" stroke="#1C274C" stroke-width="0.9375"/>
</g>
<defs>
<clipPath id="clip0_51_4733">
<rect width="15" height="15" fill="white"/>
</clipPath>
</defs>
</svg>
