<svg width="19" height="19" viewBox="0 0 19 19" fill="none" xmlns="http://www.w3.org/2000/svg">
<path d="M16.0012 10.3575C16.0362 10.0775 16.0625 9.7975 16.0625 9.5C16.0625 9.2025 16.0362 8.9225 16.0012 8.6425L17.8475 7.19875C18.0137 7.0675 18.0575 6.83125 17.9525 6.63875L16.2025 3.61125C16.1237 3.47125 15.975 3.3925 15.8175 3.3925C15.765 3.3925 15.7125 3.40125 15.6687 3.41875L13.49 4.29375C13.035 3.94375 12.545 3.655 12.0112 3.43625L11.6787 1.1175C11.6525 0.9075 11.4687 0.75 11.25 0.75H7.74998C7.53123 0.75 7.34748 0.9075 7.32123 1.1175L6.98873 3.43625C6.45498 3.655 5.96498 3.9525 5.50998 4.29375L3.33123 3.41875C3.27873 3.40125 3.22623 3.3925 3.17373 3.3925C3.02498 3.3925 2.87623 3.47125 2.79748 3.61125L1.04748 6.63875C0.933732 6.83125 0.986232 7.0675 1.15248 7.19875L2.99873 8.6425C2.96373 8.9225 2.93748 9.21125 2.93748 9.5C2.93748 9.78875 2.96373 10.0775 2.99873 10.3575L1.15248 11.8013C0.986232 11.9325 0.942482 12.1688 1.04748 12.3612L2.79748 15.3888C2.87623 15.5287 3.02498 15.6075 3.18248 15.6075C3.23498 15.6075 3.28748 15.5988 3.33123 15.5813L5.50998 14.7063C5.96498 15.0563 6.45498 15.345 6.98873 15.5638L7.32123 17.8825C7.34748 18.0925 7.53123 18.25 7.74998 18.25H11.25C11.4687 18.25 11.6525 18.0925 11.6787 17.8825L12.0112 15.5638C12.545 15.345 13.035 15.0475 13.49 14.7063L15.6687 15.5813C15.7212 15.5988 15.7737 15.6075 15.8262 15.6075C15.975 15.6075 16.1237 15.5287 16.2025 15.3888L17.9525 12.3612C18.0575 12.1688 18.0137 11.9325 17.8475 11.8013L16.0012 10.3575ZM14.2687 8.86125C14.3037 9.1325 14.3125 9.31625 14.3125 9.5C14.3125 9.68375 14.295 9.87625 14.2687 10.1388L14.1462 11.1275L14.925 11.74L15.87 12.475L15.2575 13.5338L14.1462 13.0875L13.2362 12.72L12.4487 13.315C12.0725 13.595 11.7137 13.805 11.355 13.9538L10.4275 14.33L10.2875 15.3187L10.1125 16.5H8.88748L8.72123 15.3187L8.58123 14.33L7.65373 13.9538C7.27748 13.7963 6.92748 13.595 6.57748 13.3325L5.78123 12.72L4.85373 13.0963L3.74248 13.5425L3.12998 12.4837L4.07498 11.7487L4.85373 11.1362L4.73123 10.1475C4.70498 9.87625 4.68748 9.675 4.68748 9.5C4.68748 9.325 4.70498 9.12375 4.73123 8.86125L4.85373 7.8725L4.07498 7.26L3.12998 6.525L3.74248 5.46625L4.85373 5.9125L5.76373 6.28L6.55123 5.685C6.92748 5.405 7.28623 5.195 7.64498 5.04625L8.57248 4.67L8.71248 3.68125L8.88748 2.5H10.1037L10.27 3.68125L10.41 4.67L11.3375 5.04625C11.7137 5.20375 12.0637 5.405 12.4137 5.6675L13.21 6.28L14.1375 5.90375L15.2487 5.4575L15.8612 6.51625L14.925 7.26L14.1462 7.8725L14.2687 8.86125ZM9.49998 6C7.56623 6 5.99998 7.56625 5.99998 9.5C5.99998 11.4338 7.56623 13 9.49998 13C11.4337 13 13 11.4338 13 9.5C13 7.56625 11.4337 6 9.49998 6ZM9.49998 11.25C8.53748 11.25 7.74998 10.4625 7.74998 9.5C7.74998 8.5375 8.53748 7.75 9.49998 7.75C10.4625 7.75 11.25 8.5375 11.25 9.5C11.25 10.4625 10.4625 11.25 9.49998 11.25Z" fill="black"/>
</svg>
