<svg width="24" height="17" viewBox="0 0 24 17" fill="none" xmlns="http://www.w3.org/2000/svg">
<path d="M23.0162 1.79744L8.51619 16.2974C8.43202 16.3817 8.33207 16.4485 8.22206 16.4942C8.11204 16.5398 7.99411 16.5632 7.87502 16.5632C7.75592 16.5632 7.63799 16.5398 7.52798 16.4942C7.41796 16.4485 7.31801 16.3817 7.23384 16.2974L0.890094 9.95369C0.720044 9.78364 0.624512 9.553 0.624512 9.31252C0.624512 9.07203 0.720044 8.84139 0.890094 8.67134C1.06014 8.50129 1.29078 8.40576 1.53127 8.40576C1.77175 8.40576 2.00239 8.50129 2.17244 8.67134L7.87502 14.3751L21.7338 0.515093C21.9039 0.345044 22.1345 0.249512 22.375 0.249512C22.6155 0.249512 22.8461 0.345044 23.0162 0.515093C23.1862 0.685143 23.2818 0.915779 23.2818 1.15627C23.2818 1.39675 23.1862 1.62739 23.0162 1.79744Z" fill="#F8DB79"/>
</svg>
