<svg width="18" height="19" viewBox="0 0 18 19" fill="none" xmlns="http://www.w3.org/2000/svg">
<path fill-rule="evenodd" clip-rule="evenodd" d="M15.1237 3.02464C14.3102 2.20581 13.3423 1.55654 12.2761 1.11445C11.2099 0.672353 10.0666 0.446222 8.91238 0.449155C4.07246 0.449155 0.132447 4.38819 0.130491 9.23007C0.130491 10.7775 0.534469 12.2878 1.30232 13.62L0.0571289 18.1694L4.71218 16.9477C5.99982 17.6487 7.44241 18.0162 8.90847 18.0169H8.91238C13.7513 18.0169 17.6913 14.0778 17.6933 9.23594C17.6966 8.08219 17.4712 6.93922 17.0302 5.8731C16.5891 4.80697 15.9411 3.83883 15.1237 3.02464ZM8.91238 16.5349H8.90945C7.60216 16.5351 6.31893 16.1834 5.19441 15.5167L4.92835 15.3582L2.16604 16.083L2.90259 13.3902L2.72945 13.1143C1.99856 11.9507 1.61165 10.6042 1.61338 9.23007C1.61533 5.20593 4.88922 1.93204 8.91532 1.93204C9.87416 1.92991 10.8239 2.11797 11.7096 2.48534C12.5952 2.8527 13.3993 3.39208 14.0751 4.07225C14.7545 4.74918 15.2931 5.55405 15.6596 6.44037C16.0261 7.32668 16.2133 8.27684 16.2104 9.23594C16.2085 13.2601 12.9346 16.5349 8.91238 16.5349ZM12.916 11.068C12.6959 10.9575 11.618 10.4273 11.4165 10.354C11.2159 10.2806 11.0702 10.2444 10.9235 10.4635C10.7768 10.6826 10.3561 11.1766 10.228 11.3233C10.0999 11.47 9.97173 11.4877 9.75262 11.3781C9.53351 11.2686 8.82631 11.0367 7.98803 10.2894C7.3356 9.70741 6.89542 8.98944 6.76729 8.76936C6.63915 8.54927 6.75359 8.43092 6.86412 8.32136C6.96292 8.22355 7.08323 8.06509 7.19278 7.93695C7.30234 7.80881 7.33853 7.71784 7.41189 7.57112C7.48525 7.42439 7.44906 7.29625 7.39331 7.1867C7.33853 7.07617 6.89934 5.99628 6.71642 5.55709C6.53938 5.13159 6.35842 5.18833 6.22343 5.18246C6.08363 5.17674 5.94372 5.17413 5.8038 5.17463C5.69254 5.17747 5.58307 5.20326 5.48224 5.25039C5.38142 5.29752 5.29142 5.36497 5.21789 5.44852C5.01639 5.6686 4.45003 6.19876 4.45003 7.27865C4.45003 8.35853 5.23647 9.40223 5.34602 9.54895C5.45558 9.69567 6.89347 11.9112 9.09432 12.862C9.61861 13.0879 10.0275 13.2229 10.3454 13.3246C10.8707 13.4919 11.349 13.4674 11.7275 13.4117C12.1491 13.3491 13.0255 12.8815 13.2085 12.369C13.3914 11.8564 13.3914 11.4172 13.3366 11.3253C13.2818 11.2333 13.1341 11.1776 12.916 11.068Z" fill="white"/>
</svg>
