<svg class="flex-none" width="30" viewBox="0 0 25 28"><path d="M19.057 16.773H6.005a.461.461 0 0 1-.456-.511l.433-3.816c.2-1.43 1.008-1.545 1.964-1.545.096 0 .197 0 .302.002.115 0 .234.003.363.003h7.84c1.22 0 2.482 0 2.629 1.549l.43 3.807a.464.464 0 0 1-.453.511zm-12.539-.917h12.026l-.374-3.305c-.055-.566-.14-.726-1.717-.726H8.611l-.372-.002c-.103 0-.2-.003-.293-.003-.832 0-.958.046-1.057.743l-.37 3.293zm.734 8.814H4.76a.343.343 0 0 0-.344.344v2.21c0 .19.154.344.344.344h2.492c.19 0 .343-.154.343-.344v-2.21a.343.343 0 0 0-.343-.343zm12.914 0h-2.489a.343.343 0 0 0-.343.344v2.21c0 .19.153.344.343.344h2.492c.19 0 .343-.154.343-.344v-2.21a.347.347 0 0 0-.346-.343zm-.866-6.593a.34.34 0 0 0-.314-.041l-1.098.398a1.943 1.943 0 0 0-1.276 1.82v1.783c0 .19.153.344.343.344h2.148c.19 0 .344-.154.344-.344V18.36a.345.345 0 0 0-.147-.282zm-.54 3.619H17.3v-1.44c0-.524.33-.994.822-1.175l.637-.232v2.847zM7.25 18.434l-1.099-.398a.345.345 0 0 0-.46.323v3.68c0 .19.153.344.344.344h2.147c.19 0 .344-.153.344-.343v-1.784c0-.813-.514-1.544-1.277-1.822zm.588 3.262h-1.46v-2.847l.638.232c.492.178.822.65.822 1.175v1.44zm7.719-2.494H9.75a.343.343 0 1 0 0 .688h5.807a.343.343 0 1 0 0-.688zm0 1.3H9.75a.343.343 0 1 0 0 .688h5.807a.343.343 0 1 0 0-.688z"></path><path d="M23.279 1H1.783a.46.46 0 0 0-.458.458v4.479c0 .662.167 1.322.481 1.907l.557 1.03v14.314c0 .183.108.339.264.412v1.176c0 .38.307.688.687.688h18.431a.687.687 0 0 0 .688-.688V23.6a.455.455 0 0 0 .264-.412V8.875l.557-1.031a4.007 4.007 0 0 0 .48-1.907V1.458A.456.456 0 0 0 23.28 1zm-2.707 20.911H4.488v-3.82l.834-6.363.002-.027c.076-.837 1.32-1.58 2.25-1.58h10.172c.928 0 2.175.746 2.25 1.582l.578 6.397v3.811h-.002zm-16.57 2.18v-.75h17.056v.75H4.002zM22.447 7.408l-.612 1.135a.451.451 0 0 0-.055.217v7.412l-.415-4.593c-.147-1.62-2.03-2.832-3.619-2.832H7.575c-1.582 0-3.461 1.203-3.62 2.816l-.675 5.152V8.758a.452.452 0 0 0-.055-.218l-.612-1.134c-.02-.037-.035-.076-.053-.115H22.5c-.019.04-.033.08-.053.117zm.373-1.471c0 .146-.013.293-.034.44H2.342c-.023 0-.043.004-.066.007a3.207 3.207 0 0 1-.037-.447v-4.02h20.58v4.02h.001z"></path><path d="M6.099 5.705H4.384a.46.46 0 0 1-.458-.458.46.46 0 0 1 .458-.458H6.1a.46.46 0 0 1 .458.458.46.46 0 0 1-.458.458zm14.595 0h-1.715a.46.46 0 0 1-.458-.458.46.46 0 0 1 .458-.458h1.715a.458.458 0 1 1 0 .917zm3.501 7.625h-.242a.805.805 0 0 0-.805.805v1.354l-.937.186a.459.459 0 0 0 .179.898l.758-.149v.032a.46.46 0 0 0 .459.459h.935a.46.46 0 0 0 .458-.459v-2.321a.806.806 0 0 0-.805-.805zM2.79 15.675l-.938-.186v-1.354a.805.805 0 0 0-.805-.805H.804a.807.807 0 0 0-.804.805v2.32a.46.46 0 0 0 .458.458h.935a.46.46 0 0 0 .459-.459v-.03l.758.152a.46.46 0 0 0 .179-.9z"></path></svg>