<svg class="flex-none" width="30" viewBox="8 4 50 26"><path d="M55.057 18.798l-16.71.56a4.173 4.173 0 0 0-.084-.452l5.103-.99a.49.49 0 0 0 .394-.543.5.5 0 0 0-.513-.434l-5.74.276c-.75-1.111-1.916-2.004-3.256-2.455L33.08 6.633a.74.74 0 0 0-1.464 0l-1.184 8.117c-1.355.449-2.536 1.349-3.29 2.47l-5.825-.28a.493.493 0 1 0-.118.976l5.186 1.005a4.51 4.51 0 0 0-.081.436l-16.793-.56a.487.487 0 0 0-.508.452.493.493 0 0 0 .424.53l5.524.751a1.969 1.969 0 0 0-1.097 1.763 1.97 1.97 0 0 0 1.967 1.967 1.97 1.97 0 0 0 1.967-1.967c0-.582-.257-1.107-.66-1.467l3.696.503a1.96 1.96 0 0 0-.73 1.528 1.97 1.97 0 0 0 1.968 1.967 1.97 1.97 0 0 0 1.967-1.967c0-.426-.138-.82-.37-1.143l3.133.426a7.15 7.15 0 0 0 1.227 1.829C29.23 25.278 30.758 26 32.325 26c1.566 0 3.094-.72 4.307-2.031.517-.56.936-1.19 1.235-1.841l3.041-.414c-.232.323-.37.717-.37 1.143a1.97 1.97 0 0 0 1.967 1.967 1.966 1.966 0 1 0 1.237-3.495l3.698-.503a1.96 1.96 0 0 0-.66 1.467 1.97 1.97 0 0 0 1.966 1.967 1.97 1.97 0 0 0 1.967-1.967c0-.772-.448-1.44-1.096-1.763l5.526-.751a.493.493 0 0 0-.086-.981zM15.82 23.274a.982.982 0 0 1 0-1.962.982.982 0 0 1 0 1.962zm6.24.564a.982.982 0 0 1 0-1.962.982.982 0 0 1 0 1.962zm20.444 0a.982.982 0 0 1 0-1.962c.54 0 .981.441.981.981s-.44.981-.98.981zm6.241-.564a.982.982 0 0 1 0-1.962c.54 0 .981.441.981.98 0 .54-.44.982-.98.982zm-16.4-11.385l.352 2.432-.703-.02.35-2.412zm-13.176 8.22l7.119.239c.025.247.066.495.13.747l-7.249-.986zm13.158 4.41c-1.245 0-2.418-.678-3.266-1.607 1.21.29 2.3.438 3.352.438 1.077 0 2.113-.153 3.2-.458-.85.939-2.034 1.627-3.286 1.627zm4.17-2.946a.404.404 0 0 0-.093.025c-2.766 1.005-4.94 1.023-8.21.059-.287-.572-.45-1.166-.45-1.72 0-1.86 2.002-4.018 4.58-4.018 2.581 0 4.583 2.159 4.583 4.017 0 .525-.148 1.092-.41 1.637zm1.738-.493c.062-.249.106-.495.128-.737l7.033-.234-7.16.971z" fill="#000"></path><path d="M31.657 19.355h-1.279a.37.37 0 0 0-.37.37v.55a.37.37 0 0 0 .37.369h1.28a.37.37 0 0 0 .37-.37v-.55a.37.37 0 0 0-.37-.37zm2.778 0h-1.279a.37.37 0 0 0-.37.37v.55a.37.37 0 0 0 .37.369h1.28a.37.37 0 0 0 .37-.37v-.55a.37.37 0 0 0-.37-.37z" fill="#000"></path></svg>