<svg width="18" height="19" viewBox="0 0 18 19" fill="none" xmlns="http://www.w3.org/2000/svg">
<path d="M9.22309 0C4.37426 0 0.446167 4.04091 0.446167 9.02769C0.446167 14.0145 4.37483 18.0554 9.22309 18.0554C14.0719 18.0554 18 14.0145 18 9.02769C18 4.04091 14.0713 0 9.22309 0ZM13.534 6.18484L12.0934 13.167C11.987 13.6621 11.7004 13.7821 11.3007 13.5491L9.10644 11.8857L8.04812 12.9341C7.93147 13.054 7.83237 13.156 7.60587 13.156L7.76159 10.8589L11.8279 7.08004C12.0051 6.91987 11.7888 6.82901 11.5549 6.98918L6.52942 10.2432L4.36351 9.5478C3.89295 9.39521 3.88219 9.0638 4.4626 8.83083L12.9247 5.47428C13.3177 5.32867 13.6614 5.57329 13.534 6.18484Z" fill="#444444"/>
</svg>
