<svg width="18" height="18" viewBox="0 0 18 18" fill="none" xmlns="http://www.w3.org/2000/svg">
<path fill-rule="evenodd" clip-rule="evenodd" d="M17.5538 8.77692C17.5538 13.6243 13.6243 17.5538 8.77692 17.5538C3.92956 17.5538 0 13.6243 0 8.77692C0 3.92956 3.92956 0 8.77692 0C13.6243 0 17.5538 3.92956 17.5538 8.77692ZM9.13499 12.6263H8.44611C8.44611 12.6263 6.92613 12.7179 5.58764 11.3243C4.1279 9.80431 2.83869 6.78813 2.83869 6.78813C2.83869 6.78813 2.76438 6.59037 2.84511 6.49478C2.93585 6.38729 3.18306 6.3804 3.18306 6.3804L4.82977 6.36961C4.82977 6.36961 4.98497 6.39558 5.09606 6.4771C5.18758 6.54437 5.2389 6.67016 5.2389 6.67016C5.2389 6.67016 5.50503 7.34324 5.85753 7.95217C6.54547 9.14093 6.8659 9.40096 7.09949 9.27361C7.43978 9.08789 7.33777 7.5931 7.33777 7.5931C7.33777 7.5931 7.34403 7.05051 7.16645 6.80894C7.02892 6.62166 6.76952 6.56706 6.65499 6.55173C6.56237 6.53937 6.71445 6.32424 6.91158 6.2277C7.20791 6.08251 7.73126 6.07422 8.34958 6.08063C8.83131 6.08548 8.96993 6.11552 9.1583 6.16105C9.59534 6.26658 9.58171 6.60471 9.55231 7.33428C9.54353 7.55228 9.53333 7.80523 9.53333 8.09736C9.53333 8.16309 9.53142 8.23315 9.52945 8.30523C9.51924 8.67888 9.50755 9.10666 9.75347 9.26563C9.87957 9.34699 10.1881 9.27783 10.9598 7.9675C11.3255 7.34653 11.5998 6.61634 11.5998 6.61634C11.5998 6.61634 11.6597 6.48617 11.7528 6.43031C11.8481 6.37336 11.9766 6.39089 11.9766 6.39089L13.7095 6.38009C13.7095 6.38009 14.2302 6.31798 14.3145 6.55298C14.4029 6.79971 14.1199 7.37578 13.4119 8.31938C12.7396 9.21549 12.4129 9.54486 12.4436 9.83659C12.466 10.0493 12.6783 10.2419 13.0852 10.6196C13.9382 11.4114 14.1656 11.8271 14.2196 11.9259C14.224 11.9339 14.2272 11.9398 14.2295 11.9437C14.6113 12.5767 13.8062 12.6263 13.8062 12.6263L12.2671 12.6478C12.2671 12.6478 11.9364 12.7133 11.5011 12.4143C11.2735 12.2581 11.0509 12.003 10.8389 11.7599C10.5148 11.3883 10.2152 11.0448 9.95952 11.1259C9.53052 11.262 9.54397 12.1864 9.54397 12.1864C9.54397 12.1864 9.5471 12.3838 9.44931 12.489C9.34308 12.6035 9.13499 12.6263 9.13499 12.6263Z" fill="#444444"/>
</svg>
