<svg width="18" height="18" viewBox="0 0 18 18" fill="none" xmlns="http://www.w3.org/2000/svg">
<path d="M8.85377 17.5538C13.7011 17.5538 17.6307 13.6243 17.6307 8.77692C17.6307 3.92956 13.7011 0 8.85377 0C4.00641 0 0.0768433 3.92956 0.0768433 8.77692C0.0768433 13.6243 4.00641 17.5538 8.85377 17.5538Z" fill="#444444"/>
<path fill-rule="evenodd" clip-rule="evenodd" d="M12.8513 4.80064C12.3647 4.31082 11.7857 3.92243 11.1479 3.65797C10.5101 3.39351 9.82618 3.25824 9.13573 3.26C6.24051 3.26 3.88362 5.61631 3.88245 8.51269C3.88245 9.43836 4.1241 10.3418 4.58343 11.1387L3.83856 13.8602L6.62319 13.1294C7.39345 13.5487 8.2564 13.7685 9.13339 13.7689H9.13573C12.0304 13.7689 14.3873 11.4126 14.3884 8.5162C14.3904 7.82603 14.2556 7.14232 13.9918 6.50457C13.7279 5.86682 13.3403 5.28768 12.8513 4.80064ZM9.13573 12.8824H9.13397C8.35196 12.8825 7.58434 12.6721 6.91166 12.2733L6.7525 12.1785L5.1001 12.6121L5.5407 11.0012L5.43713 10.8362C4.99992 10.1402 4.76847 9.33467 4.7695 8.51269C4.77067 6.10547 6.7291 4.14705 9.13748 4.14705C9.71106 4.14578 10.2792 4.25827 10.809 4.47803C11.3388 4.69779 11.8198 5.02044 12.224 5.42731C12.6305 5.83224 12.9526 6.31372 13.1719 6.8439C13.3911 7.37409 13.5031 7.94247 13.5014 8.5162C13.5002 10.9234 11.5418 12.8824 9.13573 12.8824ZM11.5307 9.61215C11.399 9.54603 10.7542 9.22889 10.6337 9.185C10.5137 9.14112 10.4265 9.11947 10.3388 9.25054C10.251 9.38161 9.99938 9.6771 9.92273 9.76487C9.84607 9.85263 9.76942 9.86317 9.63835 9.79763C9.50728 9.7321 9.08424 9.59342 8.58278 9.14639C8.1925 8.79823 7.92919 8.36875 7.85254 8.2371C7.77589 8.10544 7.84435 8.03464 7.91047 7.96911C7.96957 7.91059 8.04154 7.8158 8.10707 7.73915C8.17261 7.6625 8.19426 7.60808 8.23814 7.52031C8.28203 7.43255 8.26038 7.35589 8.22702 7.29036C8.19426 7.22424 7.93153 6.57826 7.82211 6.31554C7.71621 6.061 7.60796 6.09494 7.52721 6.09143C7.44358 6.08801 7.35989 6.08645 7.27619 6.08675C7.20964 6.08845 7.14415 6.10387 7.08384 6.13207C7.02352 6.16026 6.96969 6.20061 6.9257 6.25059C6.80516 6.38224 6.46637 6.69938 6.46637 7.34536C6.46637 7.99134 6.93682 8.61567 7.00235 8.70344C7.06788 8.79121 7.92802 10.1165 9.24456 10.6853C9.55819 10.8204 9.80277 10.9012 9.99294 10.962C10.3072 11.0621 10.5933 11.0475 10.8197 11.0141C11.0719 10.9767 11.5962 10.697 11.7056 10.3904C11.815 10.0838 11.815 9.82104 11.7823 9.76604C11.7495 9.71103 11.6611 9.67768 11.5307 9.61215Z" fill="white"/>
</svg>
