<svg width="13" height="13" viewBox="0 0 13 13" fill="none" xmlns="http://www.w3.org/2000/svg">
<path fill-rule="evenodd" clip-rule="evenodd" d="M11.1834 1.88476C10.6247 1.3224 9.95998 0.876486 9.22773 0.57286C8.49547 0.269234 7.71025 0.113929 6.91754 0.115944C3.59353 0.115944 0.887574 2.82123 0.88623 6.14658C0.88623 7.20935 1.16368 8.24659 1.69103 9.16157L0.835846 12.2861L4.03288 11.447C4.91722 11.9284 5.90798 12.1808 6.91485 12.1813H6.91754C10.2409 12.1813 12.9468 9.47596 12.9482 6.15061C12.9505 5.35823 12.7957 4.57325 12.4928 3.84105C12.1898 3.10884 11.7448 2.44394 11.1834 1.88476ZM6.91754 11.1635H6.91552C6.01769 11.1636 5.13638 10.922 4.36407 10.4642L4.18135 10.3553L2.28422 10.8531L2.79008 9.0037L2.67117 8.81425C2.1692 8.01511 1.90347 7.0903 1.90466 6.14658C1.906 3.38285 4.15448 1.13437 6.91956 1.13437C7.57808 1.13291 8.23035 1.26207 8.83862 1.51437C9.44689 1.76668 9.99908 2.13711 10.4632 2.60425C10.9299 3.06915 11.2997 3.62193 11.5515 4.23064C11.8032 4.83935 11.9317 5.49192 11.9297 6.15061C11.9284 8.91435 9.67993 11.1635 6.91754 11.1635ZM9.66717 7.40887C9.51602 7.33296 8.77571 6.96885 8.63732 6.91847C8.4996 6.86808 8.3995 6.84323 8.29874 6.99371C8.19797 7.14419 7.9091 7.48344 7.82109 7.58421C7.73309 7.68498 7.64509 7.69707 7.49461 7.62183C7.34413 7.54659 6.85842 7.38738 6.2827 6.87413C5.83462 6.47442 5.53231 5.98132 5.44431 5.83017C5.35631 5.67902 5.4349 5.59773 5.51082 5.52249C5.57867 5.45531 5.6613 5.34648 5.73654 5.25848C5.81178 5.17048 5.83663 5.108 5.88702 5.00723C5.9374 4.90646 5.91255 4.81846 5.87425 4.74322C5.83663 4.66731 5.535 3.92565 5.40938 3.62402C5.28778 3.33179 5.1635 3.37076 5.0708 3.36673C4.97478 3.3628 4.87869 3.36101 4.7826 3.36135C4.70619 3.3633 4.631 3.38101 4.56176 3.41338C4.49251 3.44575 4.4307 3.49207 4.3802 3.54945C4.24181 3.7006 3.85284 4.06471 3.85284 4.80637C3.85284 5.54802 4.39296 6.26482 4.4682 6.36559C4.54344 6.46635 5.53097 7.98795 7.04249 8.64093C7.40257 8.79611 7.68338 8.88882 7.90171 8.95869C8.26246 9.07356 8.59096 9.05677 8.85095 9.01848C9.14049 8.97548 9.74241 8.65437 9.86803 8.30235C9.99366 7.95033 9.99366 7.6487 9.95604 7.58555C9.91842 7.5224 9.81698 7.48411 9.66717 7.40887Z" fill="white"/>
</svg>
