<svg width="9" height="11" viewBox="0 0 9 11" fill="none" xmlns="http://www.w3.org/2000/svg">
<path d="M5.57333 4.565L4.27778 5.86056L2.97611 4.565L2.11444 5.42667L3.41611 6.72222L2.12056 8.01778L2.98222 8.87945L4.27778 7.58389L5.57333 8.87945L6.435 8.01778L5.13944 6.72222L6.435 5.42667L5.57333 4.565ZM6.41667 0.611111L5.80556 0H2.75L2.13889 0.611111H0V1.83333H8.55556V0.611111H6.41667ZM0.611111 9.77778C0.611111 10.45 1.16111 11 1.83333 11H6.72222C7.39444 11 7.94444 10.45 7.94444 9.77778V2.44444H0.611111V9.77778ZM1.83333 3.66667H6.72222V9.77778H1.83333V3.66667Z" fill="#3E3E3A"/>
</svg>
